<?xml version="1.0" encoding="utf-8"?>
<!-- Generator: Adobe Illustrator 19.1.0, SVG Export Plug-In . SVG Version: 6.00 Build 0)  -->
<svg version="1.1" id="图层_1" xmlns="http://www.w3.org/2000/svg" xmlns:xlink="http://www.w3.org/1999/xlink" x="0px" y="0px"
	 viewBox="0 0 1024 1024" style="enable-background:new 0 0 1024 1024;" xml:space="preserve">
<style type="text/css">
	.st0{fill-rule:evenodd;clip-rule:evenodd;}
</style>
<g>
	<path class="st0" d="M770.4,380.9c-23.7,0-42.9,19.5-42.9,43.5v170.1c0,24,19.2,43.5,42.9,43.5c23.7,0,42.9-19.5,42.9-43.5V424.4
		C813.3,400.4,794.1,380.9,770.4,380.9z M253.6,380.9c-23.7,0-42.9,19.5-42.9,43.5v170.1c0,24,19.2,43.5,42.9,43.5
		s42.9-19.5,42.9-43.5V424.4C296.4,400.4,277.2,380.9,253.6,380.9z"/>
	<path class="st0" d="M322.2,382.2v310.7c0,18.5,15,33.4,33.4,33.4h38.2v94.6c0,24,19.2,43.5,42.9,43.5c23.7,0,42.9-19.5,42.9-43.5
		v-94.6h66.7v94.6c0,24,19.2,43.5,42.9,43.5c23.7,0,42.9-19.5,42.9-43.5v-94.6h38.2c18.5,0,33.4-15,33.4-33.4V382.2H322.2z"/>
	<path class="st0" d="M602.4,221.2l35.2-51.1c2.1-3,1.6-7-1.2-8.9c-2.7-1.9-6.6-0.9-8.7,2.1l-36.6,53.1
		c-24.1-9.5-50.9-14.8-79.1-14.8s-55,5.3-79.1,14.8l-36.6-53.1c-2.1-3-6-4-8.7-2.1c-2.7,1.9-3.3,5.9-1.2,8.9l35.2,51.1
		c-56,26.1-95.3,75.5-100.3,133.3h381.3C697.6,296.7,658.4,247.2,602.4,221.2z M431.6,301.8c-11.7,0-21.1-9.4-21.1-21.1
		c0-11.7,9.4-21.1,21.1-21.1c11.7,0,21.1,9.4,21.1,21.1C452.7,292.3,443.2,301.8,431.6,301.8z M595.1,301.8
		c-11.7,0-21.1-9.4-21.1-21.1c0-11.7,9.4-21.1,21.1-21.1c11.7,0,21.1,9.4,21.1,21.1C616.2,292.3,606.7,301.8,595.1,301.8z"/>
</g>
</svg>
