<?xml version="1.0" encoding="UTF-8"?>
<svg width="102px" height="94px" viewBox="0 0 102 94" version="1.1" xmlns="http://www.w3.org/2000/svg" xmlns:xlink="http://www.w3.org/1999/xlink">
    <!-- Generator: Sketch 48 (47235) - http://www.bohemiancoding.com/sketch -->
    <title>心</title>
    <desc>Created with Sketch.</desc>
    <defs></defs>
    <g id="收藏页为空" stroke="none" stroke-width="1" fill="none" fill-rule="evenodd" transform="translate(-137.000000, -234.000000)">
        <g id="心" transform="translate(138.000000, 235.000000)" fill-rule="nonzero" stroke="#C8C8C8">
            <path d="M49.9984694,91.7808219 C48.6117685,91.7808219 47.2437876,91.3139455 46.1464831,90.4663417 C45.4021527,89.8911905 38.6450173,84.6403311 30.6708392,77.4344047 C20.0411136,67.8285427 12.4167308,59.4537186 8.00938125,52.542488 C6.00974388,49.4038121 4.09311076,46.2976185 2.61669457,42.7982225 C0.855826899,38.6246979 0,34.4968371 0,30.1786714 C0,22.2235301 2.85876089,14.7173763 8.04988262,9.04306816 C13.3847607,3.21152612 20.522656,0 28.1489226,0 C36.6861167,0 44.7083313,4.1829398 49.9996468,11.1672559 C55.2924929,4.18317518 63.3152961,0 71.8510774,0 C79.4762843,0 86.6138265,3.21152612 91.9488223,9.04295047 C97.1407682,14.7178471 100,22.2240008 100,30.1786714 C100,39.9751913 95.3690687,47.2384328 91.9875576,52.5418996 C87.5816209,59.4533655 79.9575913,67.828425 69.3271592,77.4345223 C61.3527457,84.6405665 54.5946684,89.8916612 53.850338,90.4665771 C52.7524448,91.3141809 51.3846994,91.7808219 49.9984694,91.7808219 Z" id="Shape"></path>
        </g>
    </g>
</svg>