<?xml version="1.0" standalone="no"?><!DOCTYPE svg PUBLIC "-//W3C//DTD SVG 1.1//EN" "http://www.w3.org/Graphics/SVG/1.1/DTD/svg11.dtd"><svg t="1519440662390" class="icon" style="" viewBox="0 0 1024 1024" version="1.1" xmlns="http://www.w3.org/2000/svg" p-id="2747" xmlns:xlink="http://www.w3.org/1999/xlink" width="32" height="32"><defs><style type="text/css"></style></defs><path d="M274.24 808.128l-6.656-6.656c4.16 4.672 6.656 12.032 6.656 18.432L274.24 808.128z" p-id="2748"></path><path d="M528.448 475.328c1.728-0.832 3.328-1.792 4.864-2.88L528.448 475.328z" p-id="2749"></path><path d="M630.912 570.752 630.912 570.752l-237.184 0 0 0 0 0.064C377.792 571.392 365.056 584.512 365.056 600.64c0 16.064 12.736 29.184 28.672 29.824l0 0 237.184 0c16.448 0 29.824-13.376 29.824-29.824C660.736 584.128 647.36 570.752 630.912 570.752z" p-id="2750"></path><path d="M917.184 265.92c-0.448-0.512-0.896-1.088-1.344-1.6l-3.84-3.84c-0.512-0.448-1.024-0.896-1.6-1.344l-146.688-146.688c-1.216-1.344-2.496-2.624-3.84-3.84-7.488-6.592-17.344-10.624-28.096-10.624 0 0 0 0-0.064 0 0 0 0 0-0.064 0-21.952 0-40 16.64-42.304 37.952l0 9.344 0 156.416c-0.64 7.168-4.352 13.44-9.92 17.472L518.848 410.88c-1.792 0.896-3.84 1.536-5.952 1.664L512.896 412.224c-0.192 0-0.384 0-0.576 0-2.624 0-5.056-0.64-7.232-1.728L344.448 318.72C338.944 314.752 335.168 308.48 334.528 301.312L334.528 297.024 334.528 144.896C334.72 143.36 334.784 141.76 334.784 140.224S334.72 137.088 334.528 135.552C332.224 114.24 314.176 97.664 292.224 97.6c0 0 0 0-0.064 0 0 0 0 0-0.064 0-10.752 0-20.608 4.032-28.096 10.624C262.72 109.44 261.44 110.72 260.224 112.064L113.6 258.816C113.024 259.264 112.512 259.648 112 260.16l-3.84 3.84C107.648 264.512 107.2 265.024 106.816 265.6 100.992 272.832 97.536 282.048 97.536 292.096L97.536 355.84l0 194.496 0 58.24 0 9.6c1.024 9.152 5.056 18.048 11.968 25.088 0.064 0.064 0.128 0.128 0.192 0.192 0.064 0.064 0.128 0.128 0.192 0.192l44.864 44.864 0 0 111.232 111.296 1.6 1.6c0 0-0.064-0.064-0.064-0.064l6.72 6.72 0 0 0 83.136c0 0.064 0 0.128 0 0.192 0 0.064 0 0.128 0 0.192 0.128 19.008 15.552 34.368 34.56 34.368l17.984 0L333.44 925.952l177.664 0 0 0.32 179.456 0 6.656 0 17.984 0c19.008 0 34.432-15.36 34.56-34.368l0-0.448 0-83.136 0 0 6.72-6.72c0 0-0.064 0.064-0.064 0.064l1.6-1.6 111.232-111.296 0 0 44.864-44.864c0.064-0.064 0.128-0.128 0.192-0.192 0.064-0.064 0.128-0.128 0.192-0.192 6.976-7.04 10.944-15.936 11.968-25.088l0-9.6 0-58.24 0-194.496L926.464 292.416C926.464 282.432 923.008 273.216 917.184 265.92zM689.472 313.472l-3.2 1.856-3.456 1.984L689.472 313.472zM869.248 316.288l0 16.128 0 261.248 0 14.272L856.96 620.224c0 0 0 0 0 0l-1.088 1.088L845.568 631.68l-95.808 95.808-46.4 46.4-1.344 1.344c-6.464 6.784-10.24 15.168-11.392 23.872l0 11.072 0 30.784c-1.088 14.4-13.12 25.728-27.84 25.728L512.896 866.688l0-0.32-151.68 0c-14.72 0-26.752-11.328-27.84-25.728l0-30.784c0.064-0.256 0.064-0.512 0.128-0.768l0-9.6c0-0.256-0.064-0.512-0.128-0.704-1.152-8.704-4.928-17.088-11.392-23.872-0.192-0.192-0.32-0.384-0.512-0.512l-0.384-0.384c-0.192-0.128-0.32-0.32-0.512-0.448l-46.4-46.4L178.432 631.296c0 0 0 0 0 0L168.128 620.992 167.04 619.904C159.616 612.48 155.52 603.008 154.752 593.344L154.752 332.096 154.752 315.968c0-10.496 3.84-20.096 10.112-27.52L154.752 298.56l10.112-10.112c0 0 0 0 0 0l3.264-3.264 10.688-10.752 95.424-95.488 0 146.24C274.176 326.4 274.112 327.552 274.112 328.768c0 1.216 0.064 2.368 0.192 3.584 1.024 9.6 6.144 17.984 13.568 23.424C289.92 357.248 292.096 358.464 294.464 359.488l200.128 113.408C496 473.856 497.472 474.688 499.008 475.392c3.712 1.728 7.808 2.88 12.096 3.2l0 0.448c4.992-0.128 9.664-1.28 13.888-3.264l4.416-2.496 200.128-113.408 6.592-3.776c7.424-5.376 12.544-13.76 13.568-23.424L749.696 325.568 749.696 179.328l95.424 95.488 24.128 24.128-10.112-10.112C865.472 296.256 869.248 305.792 869.248 316.288z" p-id="2751"></path></svg>