<?xml version="1.0" encoding="UTF-8"?>
<svg width="22px" height="22px" viewBox="0 0 22 22" version="1.1" xmlns="http://www.w3.org/2000/svg" xmlns:xlink="http://www.w3.org/1999/xlink">
    <!-- Generator: Sketch 48 (47235) - http://www.bohemiancoding.com/sketch -->
    <title>Path</title>
    <desc>Created with Sketch.</desc>
    <defs>
        <rect id="path-1" x="2" y="3.55555556" width="1" height="4.44444444" rx="0.5"></rect>
    </defs>
    <g id="iPhone-8" stroke="none" stroke-width="1" fill="none" fill-rule="evenodd" transform="translate(-126.000000, -61.000000)">
        <g id="售后" transform="translate(126.000000, 61.000000)">
            <rect id="Path" opacity="0.1" x="0" y="0" width="22" height="22"></rect>
            <g id="Group-6" transform="translate(1.500000, 2.000000)">
                <path d="M17.5,9 C17.5,9.27614237 17.2761424,9.5 17,9.5 C16.7238576,9.5 16.5,9.27614237 16.5,9 C16.5,8.50427041 16.4519737,8.01499399 16.3574405,7.53678415 C15.6684182,4.05126842 12.5969612,1.5 9,1.5 C4.85786438,1.5 1.5,4.85786438 1.5,9 C1.5,13.1421356 4.85786438,16.5 9,16.5 C11.6225197,16.5 14.0112222,15.1436576 15.3719866,12.9577912 C15.5179249,12.7233629 15.8262729,12.6516276 16.0607012,12.7975659 C16.2951295,12.9435042 16.3668648,13.2518523 16.2209265,13.4862806 C14.6794611,15.9624166 11.9715685,17.5 9,17.5 C4.30557963,17.5 0.5,13.6944204 0.5,9 C0.5,4.30557963 4.30557963,0.5 9,0.5 C13.0767285,0.5 16.557259,3.39106036 17.3384561,7.34285543 C17.4455985,7.8848503 17.5,8.43907577 17.5,9 Z" id="Oval-8" fill="#867DA3" fill-rule="nonzero"></path>
                <path d="M15.3535534,10.3535534 C15.1582912,10.5488155 14.8417088,10.5488155 14.6464466,10.3535534 C14.4511845,10.1582912 14.4511845,9.84170876 14.6464466,9.64644661 L16.2928932,8 C16.6834175,7.60947571 17.3165825,7.60947571 17.7071068,8 L19.3535534,9.64644661 C19.5488155,9.84170876 19.5488155,10.1582912 19.3535534,10.3535534 C19.1582912,10.5488155 18.8417088,10.5488155 18.6464466,10.3535534 L17,8.70710678 L15.3535534,10.3535534 Z" id="Triangle-2" fill="#867DA3" fill-rule="nonzero" transform="translate(17.000000, 9.103553) scale(-1, -1) translate(-17.000000, -9.103553) "></path>
                <g id="Group-5" transform="translate(7.000000, 5.000000)">
                    <path d="M0.947213595,4.67024833 C0.823718971,4.86563849 0.523382451,4.94483601 0.276393202,4.84714092 C0.0294039535,4.74944584 -0.0707082199,4.5118533 0.0527864045,4.31646314 L2.5,0.444541803 L4.9472136,4.31646314 C5.07070822,4.5118533 4.97059605,4.74944584 4.7236068,4.84714092 C4.47661755,4.94483601 4.17628103,4.86563849 4.0527864,4.67024833 L2.5,2.21346776 L0.947213595,4.67024833 Z" id="Triangle-3" fill="#867DA3" fill-rule="nonzero" transform="translate(2.500000, 2.666764) scale(1, -1) translate(-2.500000, -2.666764) "></path>
                    <rect id="Rectangle-23" fill="#867DA3" x="0" y="3.55555556" width="5" height="1" rx="0.5"></rect>
                    <rect id="Rectangle-24" fill="#867DA3" x="0" y="5.33333333" width="5" height="1" rx="0.5"></rect>
                    <g id="Rectangle-25">
                        <use fill="#867DA3" fill-rule="evenodd" xlink:href="#path-1"></use>
                        <rect stroke="#867DA3" stroke-width="1" x="2.5" y="4.05555556" width="1" height="3.44444444" rx="0.5"></rect>
                    </g>
                </g>
            </g>
        </g>
    </g>
</svg>