<?xml version="1.0" encoding="UTF-8"?>
<svg width="20px" height="24px" viewBox="0 0 20 24" version="1.1" xmlns="http://www.w3.org/2000/svg" xmlns:xlink="http://www.w3.org/1999/xlink">
    <!-- Generator: Sketch 48 (47235) - http://www.bohemiancoding.com/sketch -->
    <title>购物袋</title>
    <desc>Created with Sketch.</desc>
    <defs></defs>
    <g id="首页－商品详情2" stroke="none" stroke-width="1" fill="none" fill-rule="evenodd" transform="translate(-16.000000, -79.000000)">
        <g id="头部">
            <g id="购物袋" transform="translate(16.000000, 79.000000)">
                <path d="M1.48820603,23.2134704 L19.4997222,23.2134704 C19.4936154,17.8360413 19.3883606,13.711485 19.1843915,10.8431697 C18.9888795,8.0937823 18.6742386,6.46595267 18.4379422,6.29365321 L18.3516776,6.21361358 C17.2838618,4.95829436 3.70406255,4.95829436 2.63624672,6.21361358 L2.54998211,6.29365321 C2.31368572,6.46595267 1.99904482,8.0937823 1.80353282,10.8431697 C1.5995637,13.7114856 1.49430888,17.8360432 1.48820603,23.2134704 Z" id="Rectangle-2" stroke="#352665"></path>
                <circle id="Oval-3" fill="#352665" cx="6.30199803" cy="9.7691268" r="1"></circle>
                <circle id="Oval-3" fill="#352665" cx="14.6859263" cy="9.7691268" r="1"></circle>
                <path d="M6.48171608,9.91164065 C5.78098372,3.81663142 7.1294022,0.769126799 10.5269715,0.769126799 C13.9245409,0.769126799 15.2404314,3.81663142 14.4746431,9.91164065" id="Path-4" stroke="#352665"></path>
            </g>
        </g>
    </g>
</svg>