<?xml version="1.0" standalone="no"?><!DOCTYPE svg PUBLIC "-//W3C//DTD SVG 1.1//EN" "http://www.w3.org/Graphics/SVG/1.1/DTD/svg11.dtd"><svg t="1532413383707" class="icon" style="" viewBox="0 0 1024 1024" version="1.1" xmlns="http://www.w3.org/2000/svg" p-id="4061" xmlns:xlink="http://www.w3.org/1999/xlink" width="32" height="32"><defs><style type="text/css"></style></defs><path d="M824.2 360.7C809 305.8 744.7 128 512.1 128c-230.8 0-297 177.8-310.2 232.7-43.5 17-104 62.4-104 151.3 0 87 60.5 136.2 102.2 155.1 5.7 34.1 22.7 109.7 96.5 155.1 53 34.1 117.3 41.6 160.8 43.5 9.5 18.9 28.4 30.3 49.2 30.3 32.2 0 56.8-24.6 56.8-56.8 0-30.3-24.6-56.8-56.8-56.8-22.7 0-41.6 13.2-51.1 34.1-37.8-1.9-90.8-9.5-134.3-35.9-70-43.5-73.8-128.6-73.8-132.4V383.4c3.8-22.7 45.4-204.3 264.8-204.3S773.3 362.6 777 383.4v266.7c0 7.6 3.8 15.1 9.5 20.8 3.8 3.8 9.5 5.7 15.1 5.7 1.9 0 5.7 0 7.6-1.9 41.6-13.2 119.2-62.4 119.2-160.8-0.2-90.8-62.6-136.2-104.2-153.2zM198 608.5c-22.7-17-51.1-45.4-51.1-96.5s28.4-79.5 51.1-92.7v189.2z m630 0V419.3c22.7 15.1 51.1 43.5 51.1 92.7s-28.4 79.5-51.1 96.5z" p-id="4062" fill="#352665"></path></svg>