<?xml version="1.0" encoding="UTF-8"?>
<svg width="14px" height="14px" viewBox="0 0 14 14" version="1.1" xmlns="http://www.w3.org/2000/svg" xmlns:xlink="http://www.w3.org/1999/xlink">
    <!-- Generator: Sketch 46.2 (44496) - http://www.bohemiancoding.com/sketch -->
    <title>编辑</title>
    <desc>Created with Sketch.</desc>
    <defs></defs>
    <g id="软通商城App" stroke="none" stroke-width="1" fill="none" fill-rule="evenodd">
        <g id="填写订单－地址管理" transform="translate(-312.000000, -167.000000)" fill-rule="nonzero" fill="#4D4D4D">
            <g id="编辑" transform="translate(312.000000, 167.000000)">
                <path d="M13.9510955,7.4653131 C13.9315173,7.3627298 13.8999095,7.25868334 13.8592273,7.16513638 L13.85624,7.15910681 L13.8532206,7.15307723 C13.7553457,6.93737897 13.6198402,6.73222849 13.4512173,6.54371962 C13.273536,6.3461262 13.1033712,6.20583793 12.9302351,6.11230706 C12.8398767,6.06554967 12.7480407,6.02786076 12.6426333,5.99465785 C12.5191735,5.95693679 12.3956976,5.93584129 12.2692183,5.93130705 C12.2481304,5.92979563 12.2330814,5.92979563 12.2195421,5.92979563 C12.0867409,5.9297849 11.9547214,5.95013549 11.8280747,5.99013968 C11.6760105,6.03689707 11.5299369,6.11680914 11.3929217,6.22543809 L11.3853892,6.23146767 L11.3778727,6.23899259 C11.2991781,6.30726601 11.2223624,6.37768031 11.1475118,6.4501566 C11.0823495,6.51412976 11.0165935,6.57749404 10.9502523,6.64024118 L10.8930435,6.69453958 L10.8915338,6.69302816 L10.8508838,6.73523524 L10.4127275,7.15154973 L10.4307959,7.16965455 L10.3961527,7.2058642 L8.86336848,8.78812299 L8.28670332,9.38392608 L7.76723087,9.92088045 C7.60765018,10.0853031 7.47362229,10.22408 7.36823093,10.337211 L7.19658853,10.518211 L7.17248118,10.5438408 C7.07309657,10.6464241 6.99330623,10.7459685 6.93156828,10.8455289 C6.87743046,10.9303945 6.83059444,11.0197125 6.79156577,11.1125188 C6.75091574,11.1939423 6.71325302,11.2950141 6.6665641,11.4398367 C6.62591407,11.5635155 6.58526403,11.7007648 6.54161062,11.8501055 C6.50094453,11.9918891 6.46180422,12.1291385 6.42565121,12.2618857 C6.37897835,12.4353448 6.35186761,12.5575121 6.33831226,12.658584 C6.2901618,12.9843744 6.35035791,13.2649188 6.52203242,13.4851513 C6.62440434,13.6133482 6.84724876,13.8184987 7.24774237,13.8184987 C7.29743466,13.8184987 7.3501464,13.8154759 7.40282603,13.8094463 L7.41789112,13.8079349 L7.43294014,13.8049121 C7.51878544,13.7913576 7.62719623,13.7657117 7.78377355,13.7234725 C7.91776931,13.6872628 8.06082338,13.6435283 8.2204362,13.5907574 C8.36948099,13.5409772 8.51406084,13.4896855 8.64956632,13.43841 C8.79710138,13.3811048 8.91004135,13.3328199 8.99587057,13.2905968 C9.1103042,13.2377937 9.21869894,13.1699408 9.32108692,13.0884852 C9.38883163,13.0356821 9.45206323,12.9813676 9.50930413,12.9301082 C9.55748671,12.8893803 9.61471155,12.8320591 9.72912911,12.714426 C9.83153315,12.6073245 9.9579803,12.4761047 10.1115703,12.3162002 C10.2500952,12.1698985 10.409708,12.0070033 10.6159777,11.798846 L10.6205068,11.7943278 L10.6250199,11.7897936 L11.1956623,11.1939905 L12.7254431,9.61325922 L13.2193145,9.10191852 L13.2178048,9.1004071 L13.2238116,9.09587284 C13.267481,9.05667251 13.31417,9.01142654 13.3653559,8.96015098 C13.400231,8.92368901 13.4358782,8.88797506 13.4722731,8.85303345 L13.6378926,8.68711543 L13.6484446,8.6765516 L13.6589805,8.66598778 C13.7719045,8.53930223 13.85624,8.40054146 13.9119391,8.24968935 C13.9657155,8.10594617 13.9932531,7.95369841 13.9932392,7.80020411 C13.984213,7.68401808 13.973677,7.57238238 13.9510955,7.4653131 L13.9510955,7.4653131 Z M10.691271,10.6856244 L10.1206286,11.2814275 C9.9481447,11.4555872 9.77698985,11.6310612 9.607179,11.8078341 C9.45511479,11.9662111 9.33012917,12.0974309 9.22926698,12.2015256 C9.12988237,12.3040768 9.06965415,12.3644208 9.05158569,12.3780075 C9.00491283,12.4232374 8.94918166,12.4684994 8.88747583,12.5182636 C8.82572183,12.5680277 8.76250627,12.6072763 8.69472946,12.6374242 C8.62847841,12.670611 8.53060354,12.7128502 8.40261453,12.7625983 C8.26954151,12.8129388 8.13551573,12.860718 8.00061122,12.9059094 C7.86057658,12.9526668 7.72809054,12.9933786 7.60161128,13.0265493 C7.47513202,13.0597522 7.38177024,13.0823591 7.32004835,13.0929229 C7.29142789,13.0959458 7.26584296,13.0974572 7.24324532,13.0974572 C7.15743215,13.0974572 7.09720393,13.0763295 7.06407037,13.0341064 C7.02191061,12.979808 7.00986498,12.8892999 7.02791738,12.7610708 C7.03695964,12.6917065 7.05955727,12.5921461 7.09567815,12.4624377 C7.13181509,12.3327454 7.16944567,12.1984706 7.21011178,12.0582145 C7.25077787,11.9179102 7.28991818,11.7881857 7.32756484,11.6720801 C7.3652115,11.5544148 7.39683534,11.4729592 7.42092662,11.4292246 C7.44954708,11.3613396 7.48113878,11.2979887 7.51729178,11.2421628 C7.55193504,11.1863691 7.60463073,11.1230183 7.67086572,11.0551333 C7.69948617,11.0249532 7.76572115,10.9555889 7.87112858,10.8454807 C7.97502628,10.733861 8.10601865,10.5981231 8.26261202,10.4367072 L8.78205234,9.8997528 L9.35873358,9.30393363 L10.8900241,7.72167484 L12.2225455,9.10634021 L10.691271,10.6856244 L10.691271,10.6856244 Z M13.2494286,7.99019222 C13.2253213,8.05354302 13.1877067,8.11539849 13.134995,8.17423114 C13.0777862,8.23304771 13.0265682,8.28433935 12.9814211,8.32958534 C12.9362419,8.37331991 12.8970855,8.41253632 12.863968,8.44723454 C12.8263213,8.48646702 12.7902005,8.52116525 12.7570669,8.54981783 L11.4245135,7.17267738 C11.4928599,7.10792243 11.5606287,7.04255917 11.6278118,6.97659538 C11.6917605,6.91487254 11.75702,6.85452542 11.8235455,6.79559536 C11.8897966,6.7427923 11.9590671,6.70359198 12.0298312,6.68246433 C12.0945725,6.66284809 12.1578202,6.65230035 12.2195581,6.65230034 L12.2391203,6.65230034 C12.3083908,6.65530708 12.3746418,6.66583876 12.4378894,6.68548716 C12.5026308,6.7051034 12.558362,6.72769423 12.6050188,6.75184472 C12.7044034,6.80614312 12.8158336,6.89964184 12.936274,7.03390052 C13.0582402,7.16963847 13.1515859,7.30994283 13.2178369,7.45773995 C13.2374151,7.50147452 13.2524802,7.55276616 13.2630161,7.61309413 C13.2750778,7.67192676 13.2810846,7.73225474 13.2810846,7.79711698 C13.2840719,7.86201136 13.273536,7.92685751 13.2494286,7.99019222 L13.2494286,7.99019222 Z M4.82961935,13.0311157 L1.8694423,13.0311157 C1.36052184,13.0311157 0.94796654,12.6042535 0.94796654,12.0778468 L0.94796654,1.91759923 C0.94796654,1.39267187 1.36203156,0.965809625 1.8694423,0.965809609 L11.7031051,0.965809609 C12.2120417,0.965809609 12.6245809,1.39267186 12.6245809,1.91759923 L12.6245809,4.50441853 C12.6245809,4.77140841 12.83387,4.9870745 13.0913416,4.9870745 C13.3488293,4.9870745 13.5581183,4.77140841 13.5581184,4.50441853 L13.5581184,1.91759923 C13.5596281,0.860235657 12.7269849,0.000449429854 11.7031212,0.000449429854 L1.8694423,0.000449429854 C0.845578561,0.000449429854 0.0129354193,0.860235657 0.0129354193,1.91759923 L0.0129354193,12.0778307 C0.0129354193,13.1351943 0.845578561,13.9964598 1.8694423,13.9964598 L4.82961935,13.9964598 C5.08709099,13.9964598 5.29639611,13.7807616 5.29639611,13.5137717 C5.29639611,13.2467979 5.08709099,13.0311157 4.82961935,13.0311157 L4.82961935,13.0311157 Z M5.97846869,7.93590991 L3.37061873,7.93590991 C3.11313103,7.93590991 2.90384197,8.15159208 2.90384197,8.41859805 C2.90384197,8.68557186 3.11314709,8.90125402 3.37061873,8.90125402 L5.97845263,8.90125402 C6.23594033,8.90125402 6.44522939,8.68557186 6.44522939,8.41859805 C6.44524545,8.15159208 6.23595639,7.93590991 5.97846869,7.93590991 Z M3.37061873,5.21335267 C3.11313103,5.21335267 2.90384197,5.42901875 2.90384197,5.69600864 C2.90384197,5.96298245 3.11314709,6.1786807 3.37061873,6.1786807 L7.9629485,6.1786807 C8.2204362,6.1786807 8.42972526,5.96298245 8.42972526,5.69600864 C8.42972526,5.42901875 8.2204362,5.21335267 7.9629485,5.21335267 L3.37061873,5.21335267 Z M10.4940276,3.14991716 C10.4940276,2.88292728 10.2847224,2.66722903 10.0272668,2.66722901 L3.37061873,2.66722901 C3.11313103,2.66722901 2.90384197,2.88292726 2.90384197,3.14991716 C2.90384197,3.41689097 3.11314709,3.63258922 3.37061873,3.63258921 L10.0272668,3.63258921 C10.2847224,3.63258921 10.4940276,3.41687488 10.4940276,3.14991716 Z" id="Shape"></path>
            </g>
        </g>
    </g>
</svg>