<?xml version="1.0" encoding="UTF-8"?>
<svg width="24px" height="22px" viewBox="0 0 24 22" version="1.1" xmlns="http://www.w3.org/2000/svg" xmlns:xlink="http://www.w3.org/1999/xlink">
    <!-- Generator: Sketch 48 (47235) - http://www.bohemiancoding.com/sketch -->
    <title>心</title>
    <desc>Created with Sketch.</desc>
    <defs></defs>
    <g id="首页－商品详情2" stroke="none" stroke-width="1" fill="none" fill-rule="evenodd" transform="translate(-39.000000, -82.000000)">
        <g id="头部" fill="#352665" fill-rule="nonzero">
            <g id="心" transform="translate(39.000000, 82.000000)">
                <path d="M11.9996329,22.0214682 C11.6670776,22.0214682 11.3390118,21.9094588 11.0758588,21.7061082 C10.8973553,21.5681224 9.27687529,20.3083765 7.36452706,18.5795859 C4.81533176,16.2750212 2.98687059,14.2657976 1.92991059,12.6077082 C1.45036235,11.8547012 0.99072,11.1094871 0.636649412,10.2699388 C0.214362353,9.26865882 0.00912,8.27833412 0.00912,7.24235294 C0.00912,5.33381647 0.694701176,3.53299765 1.93962353,2.17166118 C3.21902118,0.772602353 4.93081412,0.00211764706 6.75972706,0.00211764706 C8.80709647,0.00211764706 10.7309647,1.00565647 11.9999153,2.68128 C13.2692329,1.00571294 15.1932424,0.00211764706 17.2402729,0.00211764706 C19.0689318,0.00211764706 20.78064,0.772602353 22.0600659,2.17163294 C23.3051859,3.53311059 23.99088,5.33392941 23.99088,7.24235294 C23.99088,9.59265882 22.8803012,11.3352 22.0693553,12.6075671 C21.0127341,14.2657129 19.1843576,16.2749929 16.6349929,18.5796141 C14.7225882,20.3084329 13.1018824,21.5682353 12.9233788,21.7061647 C12.6600847,21.9095153 12.3320753,22.0214682 11.9996329,22.0214682 Z M6.75972706,1.41382588 C5.33195294,1.41382588 3.99012706,2.02130824 2.98144941,3.12434824 C1.97508706,4.22481882 1.42088471,5.68729412 1.42088471,7.24232471 C1.42088471,8.08619294 1.58984471,8.89705412 1.93744941,9.72129882 C2.24888471,10.4597365 2.67478588,11.1491576 3.12053647,11.8490541 C5.51056941,15.5984471 11.6778071,20.38704 11.9391812,20.5890635 C11.9612329,20.6061176 11.9842165,20.6096753 11.9996329,20.6096753 C12.0150212,20.6096753 12.0380329,20.6060894 12.0602259,20.5889506 C12.3214871,20.3870682 18.4893741,15.5984188 20.8787576,11.8488565 C21.6757835,10.5982871 22.5790871,9.18098824 22.5790871,7.24232471 C22.5790871,5.68740706 22.0247718,4.22493176 21.0182682,3.12434824 C20.0095059,2.02133647 18.6677929,1.41385412 17.2402447,1.41385412 C15.3449224,1.41385412 13.5757553,2.52773647 12.6231529,4.32081882 C12.5006682,4.55141647 12.2608659,4.69552941 11.9997741,4.69552941 C11.9997459,4.69552941 11.9997176,4.69552941 11.9996894,4.69552941 C11.7385694,4.69550118 11.4987953,4.55133176 11.3763106,4.32067765 C10.4243012,2.52768 8.65530353,1.41382588 6.75972706,1.41382588 Z" id="Shape"></path>
            </g>
        </g>
    </g>
</svg>