<?xml version="1.0" encoding="UTF-8"?>
<svg width="24px" height="22px" viewBox="0 0 24 22" version="1.1" xmlns="http://www.w3.org/2000/svg" xmlns:xlink="http://www.w3.org/1999/xlink">
    <!-- Generator: Sketch 48 (47235) - http://www.bohemiancoding.com/sketch -->
    <title>心</title>
    <desc>Created with Sketch.</desc>
    <defs></defs>
    <g id="首页－商品详情2" stroke="none" stroke-width="1" fill="none" fill-rule="evenodd" transform="translate(-39.000000, -82.000000)">
        <g id="头部" fill="#352665" fill-rule="nonzero">
            <g id="心" transform="translate(39.000000, 82.000000)">
                <path d="M11.9996329,22.0214682 C11.6670776,22.0214682 11.3390118,21.9094588 11.0758588,21.7061082 C10.8973553,21.5681224 9.27687529,20.3083765 7.36452706,18.5795859 C4.81533176,16.2750212 2.98687059,14.2657976 1.92991059,12.6077082 C1.45036235,11.8547012 0.99072,11.1094871 0.636649412,10.2699388 C0.214362353,9.26865882 0.00912,8.27833412 0.00912,7.24235294 C0.00912,5.33381647 0.694701176,3.53299765 1.93962353,2.17166118 C3.21902118,0.772602353 4.93081412,0.00211764706 6.75972706,0.00211764706 C8.80709647,0.00211764706 10.7309647,1.00565647 11.9999153,2.68128 C13.2692329,1.00571294 15.1932424,0.00211764706 17.2402729,0.00211764706 C19.0689318,0.00211764706 20.78064,0.772602353 22.0600659,2.17163294 C23.3051859,3.53311059 23.99088,5.33392941 23.99088,7.24235294 C23.99088,9.59265882 22.8803012,11.3352 22.0693553,12.6075671 C21.0127341,14.2657129 19.1843576,16.2749929 16.6349929,18.5796141 C14.7225882,20.3084329 13.1018824,21.5682353 12.9233788,21.7061647 C12.6600847,21.9095153 12.3320753,22.0214682 11.9996329,22.0214682 Z" id="Shape"></path>
            </g>
        </g>
    </g>
</svg>