<?xml version="1.0" encoding="UTF-8"?>
<svg width="22px" height="22px" viewBox="0 0 22 22" version="1.1" xmlns="http://www.w3.org/2000/svg" xmlns:xlink="http://www.w3.org/1999/xlink">
    <!-- Generator: Sketch 48 (47235) - http://www.bohemiancoding.com/sketch -->
    <title>icon_password</title>
    <desc>Created with Sketch.</desc>
    <defs></defs>
    <g id="Symbols" stroke="none" stroke-width="1" fill="none" fill-rule="evenodd">
        <g id="icon_password">
            <rect id="Rectangle-5" x="0" y="0" width="22" height="22"></rect>
            <g id="Group" transform="translate(2.500000, 2.000000)" fill="#9A92B2">
                <path d="M2,6.8 L15,6.8 C16.1045695,6.8 17,7.6954305 17,8.8 L17,16.7 C17,17.8045695 16.1045695,18.7 15,18.7 L2,18.7 C0.8954305,18.7 1.11632554e-15,17.8045695 0,16.7 L0,8.8 C-1.3527075e-16,7.6954305 0.8954305,6.8 2,6.8 Z M2.21428571,7.99 C1.66200096,7.99 1.21428571,8.43771525 1.21428571,8.99 L1.21428571,16.51 C1.21428571,17.0622847 1.66200096,17.51 2.21428571,17.51 L14.7857143,17.51 C15.337999,17.51 15.7857143,17.0622847 15.7857143,16.51 L15.7857143,8.99 C15.7857143,8.43771525 15.337999,7.99 14.7857143,7.99 L2.21428571,7.99 Z" id="Combined-Shape"></path>
                <path d="M4.09259259,5.61 C4.09259259,5.95425749 3.81069781,6.23333333 3.46296296,6.23333333 C3.11522812,6.23333333 2.83333333,5.95425749 2.83333333,5.61 C2.83333333,2.51168255 5.37038642,0 8.5,0 C11.6296136,0 14.1666667,2.51168255 14.1666667,5.61 C14.1666667,5.95425749 13.8847719,6.23333333 13.537037,6.23333333 C13.1893022,6.23333333 12.9074074,5.95425749 12.9074074,5.61 C12.9074074,3.20019754 10.9341439,1.24666667 8.5,1.24666667 C6.0658561,1.24666667 4.09259259,3.20019754 4.09259259,5.61 Z" id="Combined-Shape" fill-rule="nonzero"></path>
                <path d="M8.5,14.6666667 C7.28497355,14.6666667 6.3,13.6816931 6.3,12.4666667 C6.3,11.2516402 7.28497355,10.2666667 8.5,10.2666667 C9.71502645,10.2666667 10.7,11.2516402 10.7,12.4666667 C10.7,13.6816931 9.71502645,14.6666667 8.5,14.6666667 Z M8.5,13.6666667 C9.1627417,13.6666667 9.7,13.1294084 9.7,12.4666667 C9.7,11.803925 9.1627417,11.2666667 8.5,11.2666667 C7.8372583,11.2666667 7.3,11.803925 7.3,12.4666667 C7.3,13.1294084 7.8372583,13.6666667 8.5,13.6666667 Z" id="Oval-2" fill-rule="nonzero"></path>
            </g>
        </g>
    </g>
</svg>