<?xml version="1.0" encoding="UTF-8"?>
<svg width="22px" height="22px" viewBox="0 0 22 22" version="1.1" xmlns="http://www.w3.org/2000/svg" xmlns:xlink="http://www.w3.org/1999/xlink">
    <!-- Generator: Sketch 48 (47235) - http://www.bohemiancoding.com/sketch -->
    <title>icon_pone</title>
    <desc>Created with Sketch.</desc>
    <defs></defs>
    <g id="Symbols" stroke="none" stroke-width="1" fill="none" fill-rule="evenodd">
        <g id="icon_pone">
            <rect id="Rectangle-5" x="0" y="0" width="22" height="22"></rect>
            <g id="pone" transform="translate(3.000000, 1.500000)" fill="#9A92B2">
                <path d="M2,0 L14,0 C15.1045695,-1.18396092e-15 16,0.8954305 16,2 L16,17.2 C16,18.3045695 15.1045695,19.2 14,19.2 L2,19.2 C0.8954305,19.2 1.3527075e-16,18.3045695 0,17.2 L0,2 C-1.3527075e-16,0.8954305 0.8954305,2.02906125e-16 2,0 Z M3.06666667,1.06666667 C1.96209717,1.06666667 1.06666667,1.96209717 1.06666667,3.06666667 L1.06666667,16.1333333 C1.06666667,17.2379028 1.96209717,18.1333333 3.06666667,18.1333333 L12.9333333,18.1333333 C14.0379028,18.1333333 14.9333333,17.2379028 14.9333333,16.1333333 L14.9333333,3.06666667 C14.9333333,1.96209717 14.0379028,1.06666667 12.9333333,1.06666667 L3.06666667,1.06666667 Z" id="Combined-Shape"></path>
                <path d="M3.13333333,4.26666667 L12.8666667,4.26666667 C13.4189514,4.26666667 13.8666667,4.71438192 13.8666667,5.26666667 L13.8666667,11.8 C13.8666667,12.3522847 13.4189514,12.8 12.8666667,12.8 L3.13333333,12.8 C2.58104858,12.8 2.13333333,12.3522847 2.13333333,11.8 L2.13333333,5.26666667 C2.13333333,4.71438192 2.58104858,4.26666667 3.13333333,4.26666667 Z M4.2,5.33333333 C3.64771525,5.33333333 3.2,5.78104858 3.2,6.33333333 L3.2,10.7333333 C3.2,11.2856181 3.64771525,11.7333333 4.2,11.7333333 L11.8,11.7333333 C12.3522847,11.7333333 12.8,11.2856181 12.8,10.7333333 L12.8,6.33333333 C12.8,5.78104858 12.3522847,5.33333333 11.8,5.33333333 L4.2,5.33333333 Z" id="Combined-Shape"></path>
                <rect id="Rectangle-8" x="5.33333333" y="2.13333333" width="5.33333333" height="1.06666667" rx="0.533333333"></rect>
                <path d="M8,16.5 C7.13475389,16.5 6.43333333,15.7985794 6.43333333,14.9333333 C6.43333333,14.0680872 7.13475389,13.3666667 8,13.3666667 C8.86524611,13.3666667 9.56666667,14.0680872 9.56666667,14.9333333 C9.56666667,15.7985794 8.86524611,16.5 8,16.5 Z M8,15.5 C8.31296136,15.5 8.56666667,15.2462947 8.56666667,14.9333333 C8.56666667,14.620372 8.31296136,14.3666667 8,14.3666667 C7.68703864,14.3666667 7.43333333,14.620372 7.43333333,14.9333333 C7.43333333,15.2462947 7.68703864,15.5 8,15.5 Z" id="Oval" fill-rule="nonzero"></path>
            </g>
        </g>
    </g>
</svg>