<?xml version="1.0" encoding="UTF-8"?>
<svg width="22px" height="22px" viewBox="0 0 22 22" version="1.1" xmlns="http://www.w3.org/2000/svg" xmlns:xlink="http://www.w3.org/1999/xlink">
    <!-- Generator: Sketch 48 (47235) - http://www.bohemiancoding.com/sketch -->
    <title>Path</title>
    <desc>Created with Sketch.</desc>
    <defs></defs>
    <g id="iPhone-8" stroke="none" stroke-width="1" fill="none" fill-rule="evenodd" transform="translate(-62.000000, -103.000000)">
        <g id="优惠券" transform="translate(62.000000, 103.000000)">
            <rect id="Path" opacity="0.1" x="0" y="0" width="22" height="22"></rect>
            <g id="Group" transform="translate(2.000000, 5.000000)">
                <path d="M17.5,12.4146471 C16.9174038,12.2087289 16.5,11.6531094 16.5,11 C16.5,10.3468906 16.9174038,9.79127106 17.5,9.58535285 L17.5,9.41464715 C16.9174038,9.20872894 16.5,8.65310941 16.5,8 C16.5,7.34689059 16.9174038,6.79127106 17.5,6.58535285 L17.5,6.41464715 C16.9174038,6.20872894 16.5,5.65310941 16.5,5 C16.5,4.34689059 16.9174038,3.79127106 17.5,3.58535285 L17.5,3.41464715 C16.9174038,3.20872894 16.5,2.65310941 16.5,2 C16.5,1.34689059 16.9174038,0.791271058 17.5,0.585352854 L17.5,0.5 L2,0.5 C1.17157288,0.5 0.5,1.17157288 0.5,2 L0.5,11 C0.5,11.8284271 1.17157288,12.5 2,12.5 L17.5,12.5 L17.5,12.4146471 Z" id="Combined-Shape" stroke="#867DA3"></path>
                <path d="M3.25,1.25 L3,1 L3,2 L3.25,1.75 L3.5,2 L3.5,1 L3.25,1.25 Z M3.25,3.25 L3,3 L3,4 L3.25,3.75 L3.5,4 L3.5,3 L3.25,3.25 Z M3.25,5.25 L3,5 L3,6 L3.25,5.75 L3.5,6 L3.5,5 L3.25,5.25 Z M3.25,7.25 L3,7 L3,8 L3.25,7.75 L3.5,8 L3.5,7 L3.25,7.25 Z M3.25,9.25 L3,9 L3,10 L3.25,9.75 L3.5,10 L3.5,9 L3.25,9.25 Z M3.25,11.25 L3,11 L3,12 L3.25,11.75 L3.5,12 L3.5,11 L3.25,11.25 Z" id="Combined-Shape" stroke="#867DA3"></path>
                <ellipse id="Oval-10" stroke="#867DA3" cx="7.5" cy="5.5" rx="1" ry="1.5"></ellipse>
                <ellipse id="Oval-10" stroke="#867DA3" cx="12" cy="8.5" rx="1" ry="1.5"></ellipse>
                <path d="M11.0527864,3.2763932 C11.176281,3.02940395 11.4766175,2.92929178 11.7236068,3.0527864 C11.970596,3.17628103 12.0707082,3.47661755 11.9472136,3.7236068 L8.9472136,9.7236068 C8.82371897,9.97059605 8.52338245,10.0707082 8.2763932,9.9472136 C8.02940395,9.82371897 7.92929178,9.52338245 8.0527864,9.2763932 L11.0527864,3.2763932 Z" id="Line" fill="#867DA3" fill-rule="nonzero"></path>
            </g>
        </g>
    </g>
</svg>