<?xml version="1.0" encoding="UTF-8"?>
<svg width="100px" height="100px" viewBox="0 0 100 100" version="1.1" xmlns="http://www.w3.org/2000/svg" xmlns:xlink="http://www.w3.org/1999/xlink">
    <!-- Generator: Sketch 48 (47235) - http://www.bohemiancoding.com/sketch -->
    <title>提示</title>
    <desc>Created with Sketch.</desc>
    <defs></defs>
    <g id="商城登录-TSL会员" stroke="none" stroke-width="1" fill="none" fill-rule="evenodd" transform="translate(-137.000000, -235.000000)">
        <g id="提示" transform="translate(137.000000, 235.000000)" fill="#C8C8C8" fill-rule="nonzero">
            <path d="M50,0 C22.3861111,0 0,22.3861111 0,50 C0,77.6138889 22.3861111,100 50,100 C77.6138889,100 100,77.6138889 100,50 C100,22.3861111 77.6138889,0 50,0 Z M53.3666667,76.4722223 L46.6333333,76.4722223 L46.6333333,37.9138889 L53.3666667,37.9138889 L53.3666667,76.4722223 Z M50,31.9444444 C48.4962592,31.9441964 47.1068777,31.141731 46.3552221,29.8393292 C45.6035666,28.5369274 45.6038313,26.932455 46.3559166,25.6303013 C47.1080018,24.3281476 48.497648,23.5261407 50.0013889,23.5263889 C52.3259707,23.5267725 54.2101056,25.4115293 54.2097221,27.7361111 C54.2093386,30.0606929 52.3245818,31.9448279 50,31.9444444 Z" id="Shape"></path>
        </g>
    </g>
</svg>