<?xml version="1.0" encoding="UTF-8"?>
<svg width="22px" height="22px" viewBox="0 0 22 22" version="1.1" xmlns="http://www.w3.org/2000/svg" xmlns:xlink="http://www.w3.org/1999/xlink">
    <!-- Generator: Sketch 48 (47235) - http://www.bohemiancoding.com/sketch -->
    <title>Path</title>
    <desc>Created with Sketch.</desc>
    <defs></defs>
    <g id="iPhone-8" stroke="none" stroke-width="1" fill="none" fill-rule="evenodd" transform="translate(-94.000000, -61.000000)">
        <g id="待收货" transform="translate(94.000000, 61.000000)">
            <rect id="Path" opacity="0.1" x="0" y="0" width="22" height="22"></rect>
            <path d="M2,5 L2,17 L12,17 L12,5 L2,5 Z M8,18 L8,17 L4,17 L4,18 L2,18 C1.44771525,18 1,17.5522847 1,17 L1,5 C1,4.44771525 1.44771525,4 2,4 L12,4 C12.5522847,4 13,4.44771525 13,5 L13,17 C13,17.5522847 12.5522847,18 12,18 L8,18 Z" id="Combined-Shape" fill="#867DA3" fill-rule="nonzero"></path>
            <path d="M13,8 L13,17 L20,17 L20,10.2415626 L17.5830699,8 L13,8 Z M13,7.00474457 L17.5830699,7.02648926 C17.795726,7.02648926 18.0028451,7.09428146 18.1743458,7.22001989 L20.5595376,9.43509319 C20.8164641,9.62346298 21,9.92298066 21,10.2415626 L21,18 L18.237915,18 L18.237915,17 L14,17 L14,18 L12,18 L12,17 L13,17 L13,7.00474457 Z" id="Combined-Shape" fill="#867DA3" fill-rule="nonzero"></path>
            <circle id="Oval-2" fill="#352665" opacity="0.6" cx="19" cy="14.5" r="1"></circle>
            <path d="M16.4849854,10.4856567 L16.4849854,12.0202026 L20.0084229,12.0202026 L20.0084229,10.4856567 L16.4849854,10.4856567 Z M20,12.5032959 L16,12.5032959 L16,10 L20,10 L20,12.5032959 Z" id="Combined-Shape" fill="#867DA3" fill-rule="nonzero"></path>
            <circle id="Oval-3" stroke="#867DA3" cx="6.25" cy="17.75" r="2.25"></circle>
            <circle id="Oval-3" stroke="#867DA3" cx="16.25" cy="17.75" r="2.25"></circle>
        </g>
    </g>
</svg>