<?xml version="1.0" encoding="UTF-8"?>
<svg width="50px" height="41px" viewBox="0 0 50 41" version="1.1" xmlns="http://www.w3.org/2000/svg" xmlns:xlink="http://www.w3.org/1999/xlink">
    <!-- Generator: Sketch 48 (47235) - http://www.bohemiancoding.com/sketch -->
    <title>直降促销</title>
    <desc>Created with Sketch.</desc>
    <defs></defs>
    <g id="Desktop-HD" stroke="none" stroke-width="1" fill="none" fill-rule="evenodd" transform="translate(-960.000000, -153.000000)">
        <g id="Group" transform="translate(933.000000, 115.000000)" fill-rule="nonzero">
            <g id="直降促销" transform="translate(27.000000, 38.000000)">
                <path d="M46.6226267,26.3627727 L49.9599991,20.5823385 L40.1174018,14.899698 L45.791542,5.07175361 C46.0996569,4.5662702 46.2772724,3.97246482 46.2772724,3.33729145 C46.2772724,1.4941876 44.7830848,0 42.9399,0 C41.6836393,0 40.5900984,0.694432546 40.0206604,1.72005219 L40.019689,1.71956645 L31,17.3421932 L31.0004048,17.3423551 L31,17.3430027 L40.8410591,23.0247527 L35.1600377,32.8645165 L32.0312865,31.0581662 L34.5750564,40.5507138 L44.067685,38.0071058 L40.9404719,36.201646 L46.6214933,26.3618822 L46.6226267,26.3627727 Z" id="Shape" fill="#FF6734"></path>
                <g id="价格" fill="#2D8CF0">
                    <polygon id="Shape" points="27.9990572 0 23.3982896 0 13.9710101 16.6972391 4.65700337 6.69871939e-16 0 6.69871939e-16 11.4721751 20.388431 1.70338047 20.388431 1.70338047 23.6255892 11.9831515 23.6255892 11.9831515 27.8856431 1.70338047 27.8856431 1.70338047 31.1791313 11.9831515 31.1791313 11.9831515 40.7775219 15.9587744 40.7775219 15.9587744 31.1791313 26.3518653 31.1791313 26.3518653 27.8856431 15.9587744 27.8856431 15.9587744 23.6255892 26.3518653 23.6255892 26.3518653 20.388431 16.4697508 20.388431"></polygon>
                </g>
            </g>
        </g>
    </g>
</svg>