<?xml version="1.0" encoding="UTF-8"?>
<svg width="64px" height="37px" viewBox="0 0 64 37" version="1.1" xmlns="http://www.w3.org/2000/svg" xmlns:xlink="http://www.w3.org/1999/xlink">
    <!-- Generator: Sketch 48 (47235) - http://www.bohemiancoding.com/sketch -->
    <title>单品折扣</title>
    <desc>Created with Sketch.</desc>
    <defs></defs>
    <g id="Desktop-HD" stroke="none" stroke-width="1" fill="none" fill-rule="evenodd" transform="translate(-607.000000, -155.000000)">
        <g id="Group" transform="translate(588.000000, 115.000000)" fill="#FF6734" fill-rule="nonzero">
            <g id="单品折扣" transform="translate(19.000000, 40.000000)">
                <path d="M60.8184438,14.0183604 C61.8326186,13.1296598 63.0787854,12.856144 63.970194,12.785734 L63.9701941,0 L30.645953,0 L0,0 L0,12.7906988 C1.01417481,12.8642683 2.51264407,13.1644135 3.67350639,14.2074744 C4.77027757,15.1927631 5.32678736,16.5923876 5.32678736,18.3693374 C5.32678736,19.7946886 4.85738734,20.9573563 3.93167637,21.8252949 C2.79112463,22.8954367 1.21457247,23.2267248 0.171060148,23.3233128 L0.171060148,36.2277509 L30.647307,36.2277509 L33.3237897,36.2277509 L63.7991338,36.2277509 L63.7991339,23.2984888 C62.8847065,23.1833956 61.5658731,22.8471427 60.5589198,21.8934482 C59.6183144,21.005199 59.1416929,19.7955913 59.1416929,18.2980247 C59.1416929,16.4317083 59.7058755,14.9919141 60.8184438,14.0183604 Z M9.91652649,32.1751138 C9.33790072,32.1751138 8.86940338,31.7070678 8.86940338,31.1288933 C8.86940338,30.5507189 9.33790068,30.0822216 9.91652649,30.0822216 C10.4937982,30.0822216 10.9618442,30.5507189 10.9618442,31.1288933 C10.9618442,31.7070678 10.4937982,32.1751138 9.91652649,32.1751138 Z M9.91652649,27.0938587 C9.33790072,27.0938587 8.86940338,26.6253614 8.86940338,26.0476383 C8.86940338,25.4699151 9.33790068,25.0009665 9.91652649,25.0009665 C10.4937982,25.0009665 10.9618442,25.4699152 10.9618442,26.0476383 C10.9618442,26.6253613 10.4937982,27.0938587 9.91652649,27.0938587 Z M9.91652649,22.0130549 C9.33790072,22.0130549 8.86940338,21.5441063 8.86940338,20.9668345 C8.86940338,20.3882088 9.33790068,19.9201628 9.91652649,19.9201628 C10.4937982,19.9201628 10.9618442,20.3882088 10.9618442,20.9668345 C10.9618442,21.5441063 10.4937982,22.0130549 9.91652649,22.0130549 Z M9.91652649,16.9327026 C9.33790072,16.9327026 8.86940338,16.4637539 8.86940338,15.8860308 C8.86940338,15.3083077 9.33790068,14.8398104 9.91652649,14.8398104 C10.4937982,14.8398104 10.9618442,15.3087591 10.9618442,15.8860308 C10.9618442,16.4642053 10.4937982,16.9327026 9.91652649,16.9327026 Z M9.91652649,11.8514475 C9.33790072,11.8514475 8.86940338,11.3829502 8.86940338,10.8043244 C8.86940338,10.2266013 9.33790068,9.75810395 9.91652649,9.75810395 C10.4937982,9.75810395 10.9618442,10.2266013 10.9618442,10.8043244 C10.9618442,11.3829502 10.4937982,11.8514475 9.91652649,11.8514475 Z M9.91652649,6.77064374 C9.33790072,6.77064374 8.86940338,6.30169508 8.86940338,5.72352064 C8.86940338,5.14579755 9.33790068,4.67730022 9.91652649,4.67730022 C10.4937982,4.67730022 10.9618442,5.14624888 10.9618442,5.72352064 C10.9618442,6.30169508 10.4937982,6.77064374 9.91652649,6.77064374 Z M24.0630692,28.5440339 C24.0630692,30.6757418 23.1824929,31.7711589 21.4226942,31.8302853 C20.5222586,31.8691011 19.4665599,31.8785793 18.2533414,31.8591714 C18.1364428,31.0381728 18.0091632,30.2158201 17.8719539,29.3943701 C19.0459053,29.5121714 19.9449869,29.5708464 20.5714553,29.5708464 C21.3730461,29.5708464 21.7742928,29.0910654 21.7742928,28.1328575 L21.7742928,20.4170949 C20.5520474,20.8079607 19.1925928,21.2480232 17.6963803,21.7368311 L17.3736678,19.2724811 C18.743052,18.9005718 20.209927,18.4898468 21.7742928,18.0407574 L21.7742928,11.5856046 L17.8719539,11.5856046 L17.8719539,9.56041439 L21.7742928,9.56041439 L21.7742928,3.75158929 L24.0630692,3.75158929 L24.0630692,9.56041439 L27.701822,9.56041439 L27.701822,11.5856046 L24.0630692,11.5856046 L24.0630692,17.3506491 C25.109741,17.0378662 26.1952285,16.7002593 27.3204344,16.338731 C27.339391,17.336206 27.3592502,18.1188403 27.3786581,18.6857311 C26.4886035,18.9398389 25.3837081,19.2724811 24.0630692,19.6836574 L24.0630692,28.5440339 Z M46.5965263,16.925481 L41.2566499,16.925481 L41.2566499,32.2996853 L38.9096498,32.2996853 L38.9096498,16.925481 L31.6628359,16.925481 C31.6131878,23.9673838 30.2537331,29.1501918 27.5840206,32.4757103 C27.0559456,31.8889603 26.4398581,31.2823511 25.7353068,30.6567853 C28.160841,27.8011181 29.3736082,23.2339463 29.3736082,16.9548185 L29.3736082,5.83455183 C34.4593767,5.8155953 39.6918327,5.40441894 45.0709763,4.60237681 L45.8635401,6.89115319 C40.0339531,7.49776242 35.3006859,7.83988283 31.6628359,7.91796573 L31.6628359,14.7540547 L46.5965263,14.7540547 L46.5965263,16.925481 Z M54.5077218,32.1751138 C53.9299987,32.1751138 53.4610501,31.7070678 53.4610501,31.1288933 C53.4610501,30.5507189 53.9299987,30.0822216 54.5077218,30.0822216 C55.0854449,30.0822216 55.5539422,30.5507189 55.5539422,31.1288933 C55.5539422,31.7070678 55.0854449,32.1751138 54.5077218,32.1751138 Z M54.5077218,27.0938587 C53.9299987,27.0938587 53.4610501,26.6253614 53.4610501,26.0476383 C53.4610501,25.4699151 53.9299987,25.0009665 54.5077218,25.0009665 C55.0854449,25.0009665 55.5539422,25.4699152 55.5539422,26.0476383 C55.5539422,26.6253613 55.0854449,27.0938587 54.5077218,27.0938587 Z M54.5077218,22.0130549 C53.9299987,22.0130549 53.4610501,21.5441063 53.4610501,20.9668345 C53.4610501,20.3882088 53.9299987,19.9201628 54.5077218,19.9201628 C55.0854449,19.9201628 55.5539422,20.3882088 55.5539422,20.9668345 C55.5539422,21.5441063 55.0854449,22.0130549 54.5077218,22.0130549 Z M54.5077218,16.9327026 C53.9299987,16.9327026 53.4610501,16.4637539 53.4610501,15.8860308 C53.4610501,15.3083077 53.9299987,14.8398104 54.5077218,14.8398104 C55.0854449,14.8398104 55.5539422,15.3087591 55.5539422,15.8860308 C55.5539422,16.4642053 55.0854449,16.9327026 54.5077218,16.9327026 Z M54.5077218,11.8514475 C53.9299987,11.8514475 53.4610501,11.3829502 53.4610501,10.8043244 C53.4610501,10.2266013 53.9299987,9.75810395 54.5077218,9.75810395 C55.0854449,9.75810395 55.5539422,10.2266013 55.5539422,10.8043244 C55.5539422,11.3829502 55.0854449,11.8514475 54.5077218,11.8514475 Z M54.5077218,6.77064374 C53.9299987,6.77064374 53.4610501,6.30169508 53.4610501,5.72352064 C53.4610501,5.14579755 53.9299987,4.67730022 54.5077218,4.67730022 C55.0854449,4.67730022 55.5539422,5.14624888 55.5539422,5.72352064 C55.5539422,6.30169508 55.0854449,6.77064374 54.5077218,6.77064374 Z" id="Shape"></path>
            </g>
        </g>
    </g>
</svg>