<?xml version="1.0" encoding="utf-8"?>
<!-- Generator: Adobe Illustrator 19.1.0, SVG Export Plug-In . SVG Version: 6.00 Build 0)  -->
<svg version="1.1" id="图层_1" xmlns="http://www.w3.org/2000/svg" xmlns:xlink="http://www.w3.org/1999/xlink" x="0px" y="0px"
	 viewBox="0 0 1024 1024" style="enable-background:new 0 0 1024 1024;" xml:space="preserve">
<path id="XMLID_2_" d="M815,618.7c-16.6,36.7-24.5,53.1-45.8,85.5c-29.7,45.3-71.7,101.7-123.6,102.2c-46.2,0.4-58-30.1-120.7-29.7
	c-62.7,0.3-75.7,30.2-121.9,29.8c-52-0.5-91.7-51.4-121.5-96.7c-83.2-126.6-91.9-275.2-40.6-354.2c36.5-56.1,94-89,148.1-89
	c55.1,0,89.7,30.2,135.2,30.2c44.2,0,71.1-30.2,134.8-30.2c48.1,0,99.1,26.2,135.5,71.5C675.4,403.3,694.7,573.3,815,618.7
	L815,618.7z"/>
<path id="XMLID_1_" d="M610.6,216c23.1-29.7,40.7-71.6,34.3-114.5c-37.8,2.6-82,26.7-107.8,58c-23.4,28.5-42.8,70.6-35.2,111.7
	C543.2,272.4,585.9,247.8,610.6,216L610.6,216z"/>
</svg>
