<?xml version="1.0" encoding="UTF-8"?>
<svg width="30px" height="30px" viewBox="0 0 30 30" version="1.1" xmlns="http://www.w3.org/2000/svg" xmlns:xlink="http://www.w3.org/1999/xlink">
    <!-- Generator: Sketch 48 (47235) - http://www.bohemiancoding.com/sketch -->
    <title>支付宝</title>
    <desc>Created with Sketch.</desc>
    <defs></defs>
    <g id="付款样式" stroke="none" stroke-width="1" fill="none" fill-rule="evenodd" transform="translate(-23.000000, -438.000000)">
        <g id="支付宝" transform="translate(23.000000, 438.000000)" fill="#01A0EB" fill-rule="nonzero">
            <path d="M18.855,19.5565385 C16.2265385,22.71 13.5103846,24.6380769 9.39346154,24.6380769 C5.27423077,24.6380769 2.55807691,22.0973077 2.90884614,19.0303846 C3.08423077,17.0157693 4.48615383,13.6857693 10.5311539,14.2119231 C13.6857692,14.4738462 15.1753846,15.0876923 17.8038461,15.9634615 C18.5042308,14.7369231 19.0303846,13.335 19.4688461,11.9330769 L7.90269231,11.9330769 L7.90269231,10.7942308 L13.5980769,10.7942308 L13.5980769,8.78076923 L6.67615386,8.78076923 L6.67615386,7.46538463 L13.5980769,7.46538463 L13.5980769,4.48730769 C13.5980769,4.48730769 13.6857692,4.04884614 14.2119231,4.04884614 L17.1023077,4.04884614 L17.1023077,7.46538463 L24.4626923,7.46538463 L24.4626923,8.69192309 L17.0146154,8.69192309 L17.0146154,10.7065385 L23.0607692,10.7065385 C22.565614,12.8658378 21.7380564,14.935121 20.6076923,16.8403846 C22.0961539,17.3653846 28.1423077,19.2057693 29.895,19.7319231 L29.895,4.39846154 C29.895,1.94538463 27.8792308,0.0173076855 25.5138461,0.0173076855 L4.39846154,0.0173076855 C1.94538463,0.0173076855 0.0173076855,2.03307691 0.0173076855,4.39846154 L0.0173076855,25.6015385 C0.0173076855,28.0546154 2.03307691,29.9826923 4.39846154,29.9826923 L25.6015385,29.9826923 C28.0546154,29.9826923 29.9826923,27.9680769 29.9826923,25.6015385 L29.9826923,24.5515385 C28.4930769,23.85 21.8342308,20.9584615 18.855,19.5553846 L18.855,19.5565385 Z" id="Shape"></path>
            <path d="M4.13538463,18.7673077 C3.87230771,19.9061538 4.57384617,22.6223077 8.95384614,22.6223077 C11.5823077,22.6223077 14.2119231,20.9584615 16.3142308,18.2423077 C13.335,16.7526923 10.8819231,16.0511538 8.07807691,16.0511539 C5.625,16.1388462 4.39730769,17.6284615 4.13538463,18.7673077 Z" id="Shape"></path>
        </g>
    </g>
</svg>