<?xml version="1.0" encoding="UTF-8"?>
<svg width="36px" height="23px" viewBox="0 0 36 23" version="1.1" xmlns="http://www.w3.org/2000/svg" xmlns:xlink="http://www.w3.org/1999/xlink">
    <!-- Generator: Sketch 48 (47235) - http://www.bohemiancoding.com/sketch -->
    <title>资源 1</title>
    <desc>Created with Sketch.</desc>
    <defs></defs>
    <g id="付款样式" stroke="none" stroke-width="1" fill="none" fill-rule="evenodd" transform="translate(-20.000000, -546.000000)">
        <g id="资源-1" transform="translate(20.000000, 546.000000)">
            <path d="M7.44872727,0.654545455 L16.1018182,0.654545455 C16.6529536,0.630705245 17.1809901,0.877558216 17.5161389,1.31572929 C17.8512876,1.75390037 17.9512935,2.32814582 17.784,2.85381818 L13.7454545,20.1534545 C13.4206514,21.3967603 12.3257503,22.2848762 11.0421818,22.3461818 L2.38909091,22.3461818 C1.83962034,22.3701512 1.31313339,22.1239979 0.97918528,21.6869955 C0.645237175,21.2499931 0.546008005,20.6773382 0.713454545,20.1534545 L4.74545455,2.85381818 C5.06783342,1.60792747 6.16330551,0.716695945 7.44872727,0.654545455" id="Shape" fill="#E03333" fill-rule="nonzero"></path>
            <path d="M15.3818182,0.654545455 L25.3374545,0.654545455 C26.5483636,0.654545455 25.992,1.64290909 25.7170909,2.85381818 L21.6850909,20.1534545 C21.4036364,21.3643636 21.4952727,22.3461818 20.2843636,22.3461818 L10.3287273,22.3461818 C9.77925671,22.3701512 9.25276975,22.1239979 8.91882164,21.6869955 C8.58487354,21.2499931 8.48564437,20.6773382 8.65309091,20.1534545 L12.6785455,2.85381818 C13.0046371,1.61031422 14.0979779,0.720816613 15.3818182,0.654545455" id="Shape" fill="#004889" fill-rule="nonzero"></path>
            <path d="M24.9447273,0.654545455 L33.5978182,0.654545455 C34.148867,0.62980493 34.6770323,0.876796243 35.0113281,1.31555952 C35.345624,1.7543228 35.4435688,2.32910108 35.2734545,2.85381818 L31.248,20.1534545 C30.9224722,21.3989807 29.8242144,22.2876675 28.5381818,22.3461818 L19.8850909,22.3461818 C19.3356203,22.3701512 18.8091334,22.1239979 18.4751853,21.6869955 C18.1412372,21.2499931 18.042008,20.6773382 18.2094545,20.1534545 L22.2545455,2.85381818 C22.5754673,1.61235051 23.66424,0.722258986 24.9447273,0.654545455" id="Shape" fill="#008089" fill-rule="nonzero"></path>
            <path d="M23.4981818,16.9330909 L24.3163636,16.9330909 L24.552,16.1476364 L23.7338182,16.1476364 L23.4981818,16.9330909 Z M24.1527273,14.7665455 L23.8712727,15.7090909 C24.0246438,15.6265166 24.1844365,15.5564705 24.3490909,15.4996364 C24.5127273,15.4603636 24.768,15.4276364 24.768,15.4276364 L24.9643636,14.7730909 L24.1527273,14.7665455 Z M24.5585455,13.4574545 L24.2836364,14.3476364 C24.4374059,14.2783264 24.5947141,14.217151 24.7549091,14.1643636 C24.893252,14.1364273 25.033136,14.1167561 25.1738182,14.1054545 L25.3701818,13.4509091 L24.5585455,13.4574545 Z M26.3585455,13.4574545 L25.3047273,16.9461818 L25.5861818,16.9461818 L25.3701818,17.6727273 L25.0887273,17.6727273 L25.0232727,17.9018182 L24.0152727,17.9018182 L24.0872727,17.6727273 L22.0450909,17.6727273 L22.248,17.0181818 L22.4574545,17.0181818 L23.5243636,13.4770909 L23.7403636,12.7570909 L24.7614545,12.7570909 L24.6567273,13.1236364 C24.819226,13.0101027 24.9979795,12.9218294 25.1869091,12.8618182 C25.4487273,12.7898182 26.928,12.7636364 26.928,12.7636364 L26.712,13.4770909 L26.3585455,13.4574545 Z" id="Shape" fill="#FFFFFF"></path>
            <path d="M26.8363636,12.7178182 L27.9294545,12.7178182 L27.9294545,13.1301818 C27.9294545,13.1956364 27.9818182,13.2283636 28.1127273,13.2283636 L28.3352727,13.2283636 L28.1258182,13.8829091 L27.5367273,13.8829091 C27.0261818,13.9156364 26.8363636,13.6996364 26.8429091,13.4509091 L26.8363636,12.7178182 Z" id="Shape" fill="#FFFFFF" fill-rule="nonzero"></path>
            <path d="M26.9541818,15.912 L25.9134545,15.912 L26.0901818,15.3098182 L27.2814545,15.3098182 L27.4516364,14.7665455 L26.28,14.7665455 L26.4829091,14.112 L29.7556364,14.112 L29.5461818,14.7665455 L28.4530909,14.7665455 L28.2763636,15.3098182 L29.376,15.3098182 L29.1992727,15.912 L28.008,15.912 L27.7985455,16.1607273 L28.2763636,16.1607273 L28.3941818,16.92 C28.3981954,16.9721214 28.4114956,17.0231054 28.4334545,17.0705455 C28.5133572,17.1069823 28.6011405,17.1227383 28.6887273,17.1163636 L28.8327273,17.1163636 L28.6101818,17.8494545 L28.2370909,17.8494545 L27.9818182,17.8494545 C27.8851578,17.8329346 27.7934444,17.7949071 27.7134545,17.7381818 C27.6127531,17.687178 27.5405578,17.5933241 27.5170909,17.4829091 L27.4058182,16.7301818 L26.8363636,17.4567273 C26.6604895,17.7242365 26.3577576,17.8805653 26.0378182,17.8690909 L25.3112727,17.8690909 L25.5076364,17.2145455 L25.7956364,17.2145455 C25.8691324,17.2117601 25.9409179,17.1915705 26.0050909,17.1556364 C26.0780666,17.1315282 26.1404886,17.0829778 26.1818182,17.0181818 L26.9541818,15.912 Z" id="Shape" fill="#FFFFFF" fill-rule="nonzero"></path>
            <path d="M15.5454545,14.2690909 L18.3272727,14.2690909 L18.1243636,14.9236364 L17.0181818,14.9236364 L16.8414545,15.4865455 L17.9738182,15.4865455 L17.7709091,16.1410909 L16.6189091,16.1410909 L16.3636364,17.0836364 C16.3636364,17.1818182 16.632,17.1949091 16.7432727,17.1949091 L17.3061818,17.1163636 L17.0770909,17.8690909 L15.7876364,17.8690909 C15.6903734,17.8680732 15.5936206,17.8548797 15.4996364,17.8298182 C15.3117312,17.7730794 15.1962784,17.5844127 15.2312727,17.3912727 L15.5912727,16.1803636 L14.9694545,16.1803636 L15.1723636,15.5258182 L15.8269091,15.5258182 L15.9905455,14.9629091 L15.336,14.9629091 L15.5454545,14.2690909 Z" id="Shape" fill="#FFFFFF" fill-rule="nonzero"></path>
            <path d="M17.4043636,13.0909091 L18.5367273,13.0909091 L18.3272727,13.7781818 L16.7825455,13.7781818 L16.6123636,13.9221818 C16.5403636,13.9876364 16.5141818,13.9614545 16.4225455,14.0138182 C16.2657863,14.0989482 16.0903814,14.1439238 15.912,14.1447273 L15.4210909,14.1447273 L15.6174545,13.4901818 L15.768,13.4901818 C15.8550022,13.4975458 15.9425072,13.4840835 16.0232727,13.4509091 C16.0922883,13.391112 16.1480282,13.3175355 16.1869091,13.2349091 L16.4749091,12.7178182 L17.6007273,12.7178182 L17.4043636,13.0909091 Z" id="Shape" fill="#FFFFFF" fill-rule="nonzero"></path>
            <path d="M19.5774545,14.2167273 C19.8158606,14.0209055 20.103356,13.894136 20.4087273,13.8501818 C20.5330909,13.8501818 21.2858182,13.8501818 21.2858182,13.8501818 L21.3970909,13.4705455 L19.8065455,13.4705455 L19.5774545,14.2167273 Z M21.0698182,14.5112727 L19.4858182,14.5112727 L19.3876364,14.8254545 L20.7556364,14.8254545 C20.8251517,14.8162583 20.8955755,14.8162583 20.9650909,14.8254545 L21.0698182,14.5112727 Z M19.0210909,12.7178182 L19.9832727,12.7178182 L19.8458182,13.2021818 C20.0047963,13.0732531 20.1783451,12.9634121 20.3629091,12.8749091 C20.5902509,12.8080697 20.8221282,12.7577567 21.0567273,12.7243636 L22.6145455,12.7243636 L22.0843636,14.4916364 C22.0301396,14.7010826 21.941675,14.9001279 21.8225455,15.0807273 C21.7593728,15.1841334 21.6687351,15.2679733 21.5607273,15.3229091 C21.4499252,15.3873118 21.3276553,15.4295505 21.2007273,15.4472727 L20.7163636,15.4472727 L19.2174545,15.4472727 L18.792,16.848 C18.7527273,16.9854545 18.7330909,17.0509091 18.7592727,17.0901818 C18.7921673,17.1368046 18.8462377,17.1638398 18.9032727,17.1621818 L19.5578182,17.0967273 L19.3352727,17.8625455 L18.5956364,17.8625455 C18.36,17.8625455 18.1898182,17.8625455 18.0654545,17.8625455 C17.9594362,17.8717032 17.8529533,17.8513129 17.7578182,17.8036364 C17.6858182,17.7381818 17.5810909,17.6596364 17.5810909,17.5810909 C17.6008649,17.4527721 17.6292934,17.3259373 17.6661818,17.2014545 L19.0210909,12.7178182 Z" id="Shape" fill="#FFFFFF"></path>
            <path d="M21.8290909,15.5781818 L21.744,16.0036364 C21.7215906,16.1250744 21.6594167,16.2356059 21.5672727,16.3178182 C21.4300617,16.4516802 21.2410667,16.5186658 21.0501818,16.5010909 L20.52,16.5010909 L20.52,17.0181818 C20.52,17.1556364 20.52,17.1425455 20.5723636,17.1621818 C20.5902367,17.1824323 20.6126732,17.1981379 20.6378182,17.208 L20.808,17.208 L21.3185455,17.1752727 L21.1090909,17.8756364 L20.5265455,17.8756364 C20.2508759,17.9072057 19.9716376,17.8781649 19.7083636,17.7905455 C19.6101818,17.7250909 19.5970909,17.6465455 19.5970909,17.5156364 L19.6363636,15.6174545 L20.5723636,15.6174545 L20.5723636,16.0036364 L20.8014545,16.0036364 C20.851373,16.0043229 20.9007364,15.993104 20.9454545,15.9709091 C20.9770396,15.9486766 21.0001222,15.916361 21.0109091,15.8792727 L21.1025455,15.5781818 L21.8290909,15.5781818 Z" id="Shape" fill="#FFFFFF" fill-rule="nonzero"></path>
            <path d="M8.46981818,6.17890909 L7.81527273,9.10472727 C7.77748739,9.56041231 7.58591619,9.98971646 7.272,10.3221818 C7.08892359,10.4748924 6.85567252,10.5541978 6.61745455,10.5447273 C6.45468928,10.5630458 6.29164561,10.5127716 6.16746028,10.4059722 C6.04327496,10.2991728 5.96916118,10.1454917 5.96290909,9.98181818 L5.96290909,9.85090909 L6.08072727,9.09818182 C6.08072727,9.09818182 6.73527273,6.54545455 6.84654545,6.23781818 C6.84919036,6.22486087 6.84919036,6.21150277 6.84654545,6.19854545 C6.36301683,6.2387673 5.87698317,6.2387673 5.39345455,6.19854545 C5.37507456,6.2588173 5.35978195,6.31998774 5.34763636,6.38181818 L4.69309091,9.22909091 L4.63418182,9.47127273 L4.58181818,10.2436364 C4.576125,10.4464748 4.62350674,10.6472832 4.71927273,10.8261818 C5.01381818,11.3432727 5.85163636,11.4152727 6.32290909,11.4152727 C6.86873731,11.4318111 7.40966209,11.3078491 7.89381818,11.0552727 C8.4298177,10.6919823 8.79215219,10.1236144 8.89527273,9.48436364 L8.96727273,9.20290909 C8.96727273,9.20290909 9.62181818,6.58472727 9.72654545,6.23781818 L9.72654545,6.19854545 C9.31472133,6.22837676 8.90127867,6.22837676 8.48945455,6.19854545" id="Shape" fill="#FFFFFF" fill-rule="nonzero"></path>
            <path d="M12.0632727,11.3890909 C11.6312727,11.3890909 11.4741818,11.3890909 10.9636364,11.3890909 L10.9636364,11.3498182 C11.0094545,11.16 11.0618182,10.9701818 11.1010909,10.7738182 L11.1665455,10.5054545 C11.2581818,10.0930909 11.3498182,9.61527273 11.3629091,9.47127273 C11.376,9.32727273 11.3825455,9.16363636 11.1272727,9.16363636 C11.0130519,9.17585835 10.9020864,9.20914801 10.8,9.26181818 C10.7410909,9.48436364 10.6167273,10.0996364 10.5578182,10.3810909 C10.4334545,10.9701818 10.4269091,11.0356364 10.368,11.3301818 L10.3287273,11.3694545 C9.88363636,11.3694545 9.72654545,11.3694545 9.20945455,11.3694545 L9.20945455,11.3301818 C9.29454545,10.9767273 9.37963636,10.6232727 9.45818182,10.2698182 C9.59692771,9.68949062 9.70183182,9.1015905 9.77236364,8.50909091 L9.81818182,8.50909091 C10.2120711,8.46544718 10.6032228,8.39989104 10.9898182,8.31272727 L11.0356364,8.36509091 L10.9505455,8.67272727 L11.2254545,8.50909091 C11.4449122,8.4062122 11.6834949,8.35046858 11.9258182,8.34545455 C12.1820389,8.31899818 12.4267149,8.45843722 12.5345455,8.69236364 C12.6392727,8.93454545 12.5672727,9.24218182 12.4298182,9.83781818 L12.3643636,10.1389091 C12.2203636,10.7934545 12.2007273,10.9309091 12.1221818,11.3825455 L12.0632727,11.3890909 Z" id="Shape" fill="#FFFFFF" fill-rule="nonzero"></path>
            <path d="M13.8305455,11.3890909 L13.2349091,11.3890909 L12.672,11.3890909 C12.707177,11.241919 12.7531188,11.0975304 12.8094545,10.9570909 C12.8619311,10.8142616 12.9035047,10.6676598 12.9338182,10.5185455 C13.0058182,10.1912727 13.0581818,9.95563636 13.0843636,9.75272727 C13.1105455,9.54981818 13.1432727,9.38618182 13.1694545,9.18981818 L13.7650909,9.10472727 L14.3803636,8.99345455 L14.2232727,9.61527273 C14.1774545,9.82472727 14.1250909,10.0341818 14.0792727,10.2698182 C13.9810909,10.7083636 13.9418182,10.872 13.9221818,10.9898182 C13.9025455,11.1076364 13.9221818,11.16 13.8501818,11.3890909 L13.8305455,11.3890909 Z" id="Shape" fill="#FFFFFF" fill-rule="nonzero"></path>
            <path d="M16.6058182,9.81818182 C16.5632695,10.075632 16.4815981,10.3250608 16.3636364,10.5578182 C16.2916899,10.6733939 16.1714474,10.750349 16.0363636,10.7672727 C15.9970909,10.7672727 15.7876364,10.7672727 15.7810909,10.4465455 C15.7871352,10.2786208 15.8112748,10.111838 15.8530909,9.94909091 C15.9643636,9.44509091 16.1018182,9.01963636 16.4487273,9.01963636 C16.7956364,9.01963636 16.7367273,9.33381818 16.6189091,9.84436364 M17.7578182,9.89018182 C17.9063262,9.50301857 17.8626204,9.06838854 17.64,8.71854545 C17.3675428,8.4418256 16.9862898,8.30035436 16.5992727,8.33236364 C16.1208344,8.31514533 15.6534574,8.4787273 15.2901818,8.79054545 C14.9861046,9.09789935 14.7828989,9.49061145 14.7076364,9.91636364 C14.616,10.3287273 14.5047273,11.0683636 15.1854545,11.3432727 C15.4129632,11.4206403 15.6520888,11.4582804 15.8923636,11.4545455 C16.4107035,11.4765137 16.9143581,11.2793282 17.28,10.9112727 C17.5169584,10.6129749 17.6806174,10.263238 17.7578182,9.89018182" id="Shape" fill="#FFFFFF" fill-rule="nonzero"></path>
            <path d="M29.0618182,8.36509091 C28.5185455,8.46327273 28.4072727,8.48945455 27.8509091,8.56145455 L27.8116364,8.59418182 C27.8116364,8.63345455 27.8116364,8.67272727 27.8116364,8.71854545 C27.7243628,8.57122999 27.5874452,8.45983941 27.4254545,8.40436364 C26.962316,8.34539377 26.4991895,8.51358181 26.1818182,8.856 C25.8790827,9.16432774 25.6761053,9.55659881 25.5992727,9.98181818 C25.5076364,10.3810909 25.3963636,11.1207273 26.0770909,11.3825455 C26.266558,11.4655566 26.4726519,11.5036391 26.6792727,11.4938182 C26.8936742,11.4680185 27.0948583,11.3765712 27.2552727,11.232 C27.2552727,11.2909091 27.2552727,11.3498182 27.2029091,11.4152727 L27.2356364,11.4545455 C27.7265455,11.4545455 27.8901818,11.4545455 28.4007273,11.4545455 L28.4465455,11.4152727 C28.5250909,10.9636364 28.5970909,10.5250909 28.8,9.66109091 C28.8916364,9.24872727 28.9898182,8.84290909 29.0945455,8.43054545 L29.0618182,8.36509091 Z M27.3403636,10.6101818 C27.2315497,10.7322096 27.078222,10.8053352 26.9149091,10.8130909 C26.9149091,10.8130909 26.6661818,10.8130909 26.6596364,10.4989091 C26.6656807,10.3309845 26.6898203,10.1642017 26.7316364,10.0014545 C26.8429091,9.504 26.9803636,9.08509091 27.3272727,9.08509091 C27.5432727,9.08509091 27.6610909,9.288 27.6349091,9.63490909 C27.6349091,9.71345455 27.6152727,9.80509091 27.576,9.90981818 C27.5432727,10.0603636 27.504,10.2043636 27.4647273,10.3549091 C27.4326512,10.4442576 27.3909514,10.5298519 27.3403636,10.6101818 Z" id="Shape" fill="#FFFFFF" fill-rule="nonzero"></path>
            <path d="M20.7163636,11.3890909 C20.2778182,11.3890909 20.1338182,11.3890909 19.6232727,11.3890909 L19.6232727,11.3498182 C19.6625455,11.16 19.7149091,10.9701818 19.7607273,10.7738182 L19.8196364,10.5054545 C19.9112727,10.0930909 20.0094545,9.61527273 20.016,9.47127273 C20.0225455,9.32727273 20.0552727,9.16363636 19.8065455,9.16363636 C19.6921701,9.17508543 19.5810626,9.20841768 19.4792727,9.26181818 C19.4138182,9.48436364 19.2894545,10.0996364 19.2305455,10.3810909 C19.1061818,10.9701818 19.0996364,11.0356364 19.0407273,11.3301818 L19.0407273,11.3694545 C18.5890909,11.3694545 18.4385455,11.3694545 17.9214545,11.3694545 L17.9214545,11.3301818 L18.1767273,10.2698182 C18.3223037,9.67702811 18.4315975,9.0759126 18.504,8.46981818 L18.5432727,8.43709091 C18.9372345,8.39396987 19.3284155,8.32840882 19.7149091,8.24072727 L19.7541818,8.29309091 L19.6756364,8.60072727 L19.9505455,8.43709091 C20.1700031,8.3342122 20.4085858,8.27846858 20.6509091,8.27345455 C20.9071298,8.24699818 21.1518059,8.38643722 21.2596364,8.62036364 C21.3643636,8.86254545 21.2923636,9.17018182 21.1549091,9.76581818 L21.0894545,10.0669091 C20.9454545,10.7214545 20.9258182,10.8589091 20.8472727,11.3105455 L20.7163636,11.3890909 Z" id="Shape" fill="#FFFFFF" fill-rule="nonzero"></path>
            <path d="M24.4865455,6.17890909 L24.1265455,6.17890909 C23.184,6.17890909 22.8174545,6.17890909 22.6538182,6.17890909 L22.6145455,6.36872727 L22.2545455,7.92654545 C22.2545455,7.92654545 21.4429091,11.2516364 21.4101818,11.4021818 C22.2283636,11.4021818 22.5687273,11.4021818 22.7192727,11.4021818 L22.9418182,10.3221818 C22.9418182,10.3221818 23.1054545,9.66763636 23.1185455,9.61527273 C23.1468929,9.57618307 23.1824374,9.54286017 23.2232727,9.51709091 L23.2952727,9.51709091 C24.0380794,9.59688639 24.7867439,9.43383369 25.4290909,9.05236364 C25.8650266,8.71929289 26.1669621,8.24084124 26.28,7.704 C26.3173298,7.54963036 26.3370916,7.39153595 26.3389091,7.23272727 C26.3504261,7.02260837 26.2954614,6.81420051 26.1818182,6.63709091 C25.8610909,6.18545455 25.2261818,6.18545455 24.4865455,6.17890909 M24.9578182,7.80218182 C24.891051,8.13831027 24.6739784,8.4253285 24.3687273,8.58109091 C24.1059402,8.69003746 23.8210063,8.73490895 23.5374545,8.712 L23.3410909,8.712 L23.3410909,8.63345455 L23.6945455,7.08218182 L23.6945455,7.00363636 L23.6945455,6.93818182 L23.8385455,6.93818182 L24.5912727,7.00363636 C24.8930056,7.13566102 25.0372629,7.48187863 24.9185455,7.78909091" id="Shape" fill="#FFFFFF" fill-rule="nonzero"></path>
            <path d="M14.3083636,8.71854545 C14.5963636,8.52218182 14.6356364,8.24072727 14.3934545,8.064 C14.0745771,7.92625632 13.7067988,7.96601614 13.4247273,8.16872727 C13.1367273,8.36509091 13.104,8.64 13.3461818,8.82327273 C13.66342,8.95723354 14.0273741,8.91761949 14.3083636,8.71854545" id="Shape" fill="#FFFFFF" fill-rule="nonzero"></path>
            <path d="M32.688,8.35854545 L32.6487273,8.31272727 C32.112,8.41745455 31.9941818,8.43709091 31.5163636,8.50254545 L31.4770909,8.54181818 C31.1105455,9.39272727 31.1236364,9.19636364 30.8225455,9.85090909 L30.8225455,9.81818182 L30.7636364,8.35854545 L30.7178182,8.31272727 C30.1549091,8.41745455 30.1418182,8.43709091 29.6247273,8.50254545 L29.5789091,8.54181818 C29.5821093,8.55912604 29.5821093,8.57687396 29.5789091,8.59418182 C29.6296965,8.85167652 29.6668392,9.11167552 29.6901818,9.37309091 C29.6901818,9.62836364 29.7621818,9.89018182 29.7883636,10.1454545 C29.8407273,10.5709091 29.8734545,10.8 29.9323636,11.4545455 C29.5854545,12.0305455 29.5003636,12.2530909 29.1665455,12.7636364 L28.9243636,13.1432727 C28.9048736,13.1776784 28.8751252,13.2051385 28.8392727,13.2218182 C28.787572,13.2336019 28.7338825,13.2336019 28.6821818,13.2218182 L28.5512727,13.2218182 L28.3549091,13.8763636 L29.0094545,13.8763636 C29.3311481,13.8893093 29.6326002,13.7195842 29.7883636,13.4378182 L30.2072727,12.7178182 L30.2530909,12.6654545 C30.5410909,12.0501818 32.7010909,8.33890909 32.7010909,8.33890909" id="Shape" fill="#FFFFFF" fill-rule="nonzero"></path>
        </g>
    </g>
</svg>