<?xml version="1.0" encoding="UTF-8"?>
<svg width="30px" height="30px" viewBox="0 0 30 30" version="1.1" xmlns="http://www.w3.org/2000/svg" xmlns:xlink="http://www.w3.org/1999/xlink">
    <!-- Generator: Sketch 48 (47235) - http://www.bohemiancoding.com/sketch -->
    <title>微信-2</title>
    <desc>Created with Sketch.</desc>
    <defs></defs>
    <g id="付款样式" stroke="none" stroke-width="1" fill="none" fill-rule="evenodd" transform="translate(-23.000000, -490.000000)">
        <g id="微信-2" transform="translate(23.000000, 490.000000)" fill="#00C700" fill-rule="nonzero">
            <path d="M6.9146964,9.39601056 C6.9146964,10.0943972 7.47791141,10.6576122 8.17629804,10.6576122 C8.87468467,10.6576122 9.43789968,10.0943972 9.43789968,9.39601056 C9.43789968,8.69762393 8.87468467,8.13440892 8.17629804,8.13440892 C7.47791141,8.13440892 6.9146964,8.69762393 6.9146964,9.39601056 Z" id="Shape"></path>
            <path d="M16.7427985,15.9180405 C16.7427985,16.464359 17.1877383,16.9092989 17.7340569,16.9092989 C18.2803755,16.9092989 18.7253153,16.464359 18.7253153,15.9180405 C18.7253153,15.3717219 18.2803755,14.926782 17.7340569,14.926782 C17.1821062,14.9324142 16.7427985,15.3717219 16.7427985,15.9180405 Z" id="Shape"></path>
            <path d="M13.3522441,9.39601056 C13.3522441,10.0943972 13.9154591,10.6576122 14.6138457,10.6576122 C15.3122323,10.6576122 15.8754473,10.0943972 15.8754473,9.39601056 C15.8754473,8.69762393 15.3122323,8.13440892 14.6138457,8.13440892 C13.9154591,8.13440892 13.3522441,8.69762393 13.3522441,9.39601056 Z" id="Shape"></path>
            <path d="M29.888237,4.40029334 C29.888237,1.95030801 27.8719273,0.0184804928 25.5064242,0.0184804928 L4.39149311,0.0184804928 C1.93587564,0.0184804928 0.00968026694,2.03479026 0.00968026694,4.40029334 L0.00968026694,25.6053388 C0.00968026694,28.0553241 2.02599003,29.9871517 4.39149311,29.9871517 L25.5965386,29.9871517 C28.0465239,29.9871517 29.9783514,27.9708419 29.9783514,25.6053388 L29.888237,4.40029334 Z M11.2401878,20.0013494 C10.1081256,20.0013494 9.19571723,19.7704312 8.05802289,19.5451452 L4.88712231,21.1390437 L5.79389849,18.4074509 C3.5185098,16.8191845 2.16116162,14.7690819 2.16116162,12.2740393 C2.16116162,7.9541801 6.25010267,4.54672925 11.2458199,4.54672925 C15.712115,4.54672925 19.6264594,7.26705779 20.4149604,10.9279554 C20.1277207,10.8997947 19.8348489,10.8772661 19.5419771,10.8772661 C15.2277501,10.8772661 11.8202992,14.0932239 11.8202992,18.0638897 C11.8202992,18.7228513 11.9216779,19.3592843 12.1019067,19.9675565 C11.8090349,19.9900851 11.5274274,20.0013494 11.2401878,20.0013494 Z M24.639073,23.1835142 L25.3205632,25.4532708 L22.8311528,24.0902904 C21.9243766,24.3155764 21.0119683,24.5464946 20.1051921,24.5464946 C15.7853329,24.5464946 12.3778821,21.5952479 12.3778821,17.9568789 C12.3778821,14.324142 15.7797008,11.3672632 20.1051921,11.3672632 C24.188501,11.3672632 27.8212379,14.3297742 27.8212379,17.9568789 C27.8212379,20.0013494 26.4638897,21.8149017 24.639073,23.1835142 Z" id="Shape"></path>
            <path d="M21.6878264,15.9180405 C21.6878264,16.464359 22.1327662,16.9092989 22.6790848,16.9092989 C23.2254034,16.9092989 23.6703432,16.464359 23.6703432,15.9180405 C23.6703432,15.3717219 23.2254034,14.926782 22.6790848,14.926782 C22.1327662,14.9324142 21.6878264,15.3717219 21.6878264,15.9180405 Z" id="Shape"></path>
        </g>
    </g>
</svg>